<svg width="16" height="16" viewBox="0 0 16 16" fill="#3C3C4C" xmlns="http://www.w3.org/2000/svg">
<path opacity="0.9" d="M8.4 0.399994C5.6 0.399994 3.12 1.91999 1.84 4.23999L0 2.39999V7.59999H5.2L2.96 5.35999C4 3.35999 6 1.99999 8.4 1.99999C11.68 1.99999 14.4 4.71999 14.4 7.99999C14.4 11.28 11.68 14 8.4 14C5.76 14 3.6 12.32 2.72 9.99999H1.04C1.92 13.2 4.88 15.6 8.4 15.6C12.64 15.6 16 12.16 16 7.99999C16 3.83999 12.56 0.399994 8.4 0.399994ZM7.2 4.39999V8.47999L10.96 10.72L11.6 9.67999L8.4 7.75999V4.39999H7.2Z"/>
</svg>
