<svg width="16" height="16" viewBox="0 0 16 16" fill="none" xmlns="http://www.w3.org/2000/svg">
<path d="M15.7978 5.09089C15.9091 5.09089 16 4.99563 16 4.88873V3.83857C16 3.7273 15.9142 3.6364 15.7978 3.6364H0.20217C0.090902 3.6364 0 3.73167 0 3.83857V4.88873C0 4.99999 0.0858301 5.09089 0.20217 5.09089H15.7978Z" fill="#3C3C4D"/>
<path d="M0 8.52508C0 8.63634 0.0858301 8.72724 0.20217 8.72724H15.7978C15.9091 8.72724 16 8.63195 16 8.52508V7.47491C16 7.36291 15.9141 7.27274 15.7978 7.27274H0.20217C0.090902 7.27274 0 7.36803 0 7.47491V8.52508Z" fill="#3C3C4D"/>
<path d="M0 12.1614C0 12.2727 0.0858301 12.3636 0.20217 12.3636H15.7978C15.9091 12.3636 16 12.2683 16 12.1614V11.1113C16 11 15.9141 10.9091 15.7978 10.9091H0.20217C0.090902 10.9091 0 11.0044 0 11.1113V12.1614Z" fill="#3C3C4D"/>
</svg>
